<?xml version="1.0" encoding="utf-8"?>
<!-- Generator: Adobe Illustrator 18.1.1, SVG Export Plug-In . SVG Version: 6.00 Build 0)  -->
<!DOCTYPE svg PUBLIC "-//W3C//DTD SVG 1.1//EN" "http://www.w3.org/Graphics/SVG/1.1/DTD/svg11.dtd">
<svg version="1.1" id="Livello_1" xmlns="http://www.w3.org/2000/svg" xmlns:xlink="http://www.w3.org/1999/xlink" x="0px" y="0px"
	 viewBox="0 0 143.9 54.2" enable-background="new 0 0 143.9 54.2" xml:space="preserve">
<g>
	<rect x="0.5" y="0.5" fill="none" stroke="#BDBBC0" stroke-width="0.9528" width="49" height="53.2"/>
	<path fill="#CECBD0" d="M44.7,11.4c0,0-4.6,3.1-9.3,3.1c-5.9,0-12.9-4.8-18.8-4.8c-4.7,0-9.4,3-9.4,3v4.8c0,0,4.7-3,9.4-3
		c5.8,0,12.9,4.8,18.8,4.8c4.7,0,9.3-3.1,9.3-3.1V11.4z"/>
	<path fill="#CECBD0" d="M44.7,25.1c0,0-4.6,3.1-9.3,3.1c-5.9,0-12.9-4.8-18.8-4.8c-4.7,0-9.4,3-9.4,3v4.8c0,0,4.7-3,9.4-3
		c5.8,0,12.9,4.8,18.8,4.8c4.7,0,9.3-3.1,9.3-3.1V25.1z"/>
	<path fill="#CECBD0" d="M44.7,38.8c0,0-4.6,3.1-9.3,3.1c-5.9,0-12.9-4.8-18.8-4.8c-4.7,0-9.4,3-9.4,3V45c0,0,4.7-3,9.4-3
		c5.8,0,12.9,4.8,18.8,4.8c4.7,0,9.3-3.1,9.3-3.1V38.8z"/>
	<rect x="52.2" y="0.5" fill="#193F78" width="91.3" height="53.2"/>
	<rect x="52.2" y="0.5" fill="none" stroke="#09498E" stroke-width="0.9528" width="91.3" height="53.2"/>
	<path fill="#193F78" d="M43.3,9.4c0,0-4.6,3.1-9.3,3.1c-5.9,0-12.9-4.8-18.8-4.8c-4.7,0-9.4,3-9.4,3v4.8c0,0,4.7-3,9.4-3
		c5.8,0,12.9,4.8,18.8,4.8c4.7,0,9.3-3.1,9.3-3.1V9.4z"/>
	<path fill="#193F78" d="M43.3,23.1c0,0-4.6,3.1-9.3,3.1c-5.9,0-12.9-4.8-18.8-4.8c-4.7,0-9.4,3-9.4,3v4.8c0,0,4.7-3,9.4-3
		c5.8,0,12.9,4.8,18.8,4.8c4.7,0,9.3-3.1,9.3-3.1V23.1z"/>
	<path fill="#193F78" d="M43.3,36.8c0,0-4.6,3.1-9.3,3.1c-5.9,0-12.9-4.8-18.8-4.8c-4.7,0-9.4,3-9.4,3v4.8c0,0,4.7-3,9.4-3
		c5.8,0,12.9,4.8,18.8,4.8c4.7,0,9.3-3.1,9.3-3.1V36.8z"/>
	<path fill="#FFFFFF" d="M70.8,10.8h-5.2c-1,0-1.8,0.2-2.4,0.5c-0.6,0.3-1.1,0.9-1.4,1.6c-0.3,0.7-0.4,1.7-0.4,2.9
		c0,1.2,0.1,2.2,0.4,2.9c0.3,0.7,0.7,1.3,1.4,1.6c0.6,0.3,1.4,0.5,2.4,0.5h3v-4.4h-4.1V15h6.4v7.7h-6c-0.9,0-1.7-0.1-2.4-0.4
		c-0.7-0.3-1.3-0.7-1.8-1.3c-0.5-0.6-0.9-1.3-1.2-2.1c-0.3-0.8-0.4-1.8-0.4-2.9c0-1.1,0.1-2,0.4-2.9c0.3-0.8,0.7-1.6,1.2-2.1
		c0.5-0.6,1.1-1,1.8-1.3c0.7-0.3,1.5-0.4,2.4-0.4h6V10.8z"/>
	<path fill="#FFFFFF" d="M74.3,15.3H79c0.7,0,1.3-0.2,1.8-0.5c0.5-0.3,0.7-0.9,0.7-1.8c0-0.9-0.2-1.5-0.7-1.8
		c-0.5-0.3-1.1-0.5-1.8-0.5h-4.7V15.3z M72.2,9.2h7.2c0.9,0,1.6,0.1,2.3,0.4c0.7,0.3,1.2,0.7,1.5,1.3c0.4,0.6,0.6,1.3,0.6,2.2
		c0,0.6-0.1,1.1-0.4,1.6c-0.2,0.5-0.6,0.9-1,1.2c-0.4,0.3-1,0.6-1.6,0.7l0.1,0c1,0.5,1.7,1.2,2.1,2.2c0.1,0.3,0.2,0.5,0.2,0.8
		c0,0.3,0.1,0.6,0.1,0.9c0,0.4,0.1,0.6,0.1,0.8c0,0.2,0.1,0.4,0.1,0.6c0,0.2,0.1,0.5,0.1,0.8h-2.3c-0.1-0.7-0.2-1.2-0.2-1.4
		c0-0.1,0-0.3-0.1-0.6c0-0.3-0.1-0.6-0.1-0.9c0-0.2-0.1-0.5-0.1-0.6c-0.2-0.7-0.6-1.3-1.1-1.7c-0.5-0.4-1.3-0.6-2.2-0.6h-3.3v5.7
		h-2.2V9.2z"/>
	<path fill="#FFFFFF" d="M87.3,9.2V18c0,1,0.3,1.8,0.9,2.4c0.6,0.6,1.6,0.9,2.8,0.9c0.8,0,1.5-0.1,2.1-0.4c0.6-0.3,1-0.7,1.3-1.2
		c0.3-0.5,0.4-1.1,0.4-1.7V9.2h2.2v8.8c0,0.8-0.1,1.6-0.4,2.2c-0.3,0.6-0.6,1.1-1.1,1.6c-0.5,0.4-1.1,0.7-1.8,0.9
		c-0.7,0.2-1.6,0.3-2.5,0.3c-1.3,0-2.4-0.2-3.3-0.5c-0.9-0.4-1.5-0.9-2-1.7c-0.4-0.7-0.7-1.7-0.7-2.8V9.2H87.3z"/>
	<path fill="#FFFFFF" d="M100.8,16.1h4.1c0.8,0,1.5-0.2,1.9-0.6c0.4-0.4,0.6-1.1,0.6-2.1c0-1-0.2-1.7-0.6-2.1
		c-0.4-0.4-1-0.6-1.9-0.6h-4.1V16.1z M98.6,9.2h6.5c0.9,0,1.7,0.2,2.3,0.5c0.7,0.3,1.2,0.8,1.6,1.4c0.4,0.6,0.6,1.5,0.6,2.4
		c0,1-0.2,1.8-0.6,2.4c-0.4,0.6-1,1.1-1.6,1.4c-0.7,0.3-1.5,0.5-2.3,0.5h-4.3v4.8h-2.2V9.2z"/>
	<path fill="#FFFFFF" d="M113.3,16.1h4.1c0.8,0,1.5-0.2,1.9-0.6c0.4-0.4,0.6-1.1,0.6-2.1c0-1-0.2-1.7-0.6-2.1
		c-0.4-0.4-1-0.6-1.9-0.6h-4.1V16.1z M111.1,9.2h6.5c0.9,0,1.7,0.2,2.3,0.5c0.7,0.3,1.2,0.8,1.6,1.4c0.4,0.6,0.6,1.5,0.6,2.4
		c0,1-0.2,1.8-0.6,2.4c-0.4,0.6-0.9,1.1-1.6,1.4c-0.7,0.3-1.5,0.5-2.3,0.5h-4.3v4.8h-2.2V9.2z"/>
	<path fill="#FFFFFF" d="M127.8,11c-0.6,0.3-1.1,0.9-1.4,1.7c-0.3,0.8-0.5,1.9-0.5,3.2c0,1.4,0.2,2.4,0.5,3.2
		c0.3,0.8,0.8,1.3,1.4,1.7c0.6,0.3,1.4,0.5,2.4,0.5c0.9,0,1.7-0.2,2.4-0.5c0.6-0.3,1.1-0.9,1.4-1.7c0.3-0.8,0.5-1.9,0.5-3.2
		c0-1-0.1-1.9-0.3-2.6c-0.2-0.7-0.5-1.2-0.8-1.6c-0.4-0.4-0.8-0.7-1.3-0.9c-0.5-0.2-1.1-0.3-1.8-0.3C129.2,10.5,128.5,10.7,127.8,11
		 M133,9.3c0.8,0.3,1.5,0.7,2.1,1.3c0.6,0.6,1,1.3,1.3,2.2c0.3,0.9,0.5,1.9,0.5,3.1c0,1.2-0.2,2.2-0.5,3.1c-0.3,0.9-0.7,1.6-1.3,2.2
		c-0.6,0.6-1.3,1-2.1,1.3c-0.8,0.3-1.7,0.4-2.8,0.4c-1,0-2-0.1-2.8-0.4c-0.8-0.3-1.5-0.7-2.1-1.3c-0.6-0.6-1-1.3-1.3-2.2
		c-0.3-0.9-0.5-1.9-0.5-3.1c0-1.2,0.2-2.2,0.5-3.1c0.3-0.9,0.7-1.6,1.3-2.2c0.6-0.6,1.3-1,2.1-1.3c0.8-0.3,1.7-0.4,2.8-0.4
		C131.2,8.9,132.2,9,133,9.3"/>
	<path fill="#FFFFFF" d="M74.4,37.1h-12v0.3c0,0.4,0.1,1,0.2,1.6c0.1,0.6,0.3,1.3,0.7,2c0.4,0.7,0.9,1.2,1.6,1.6
		c0.9,0.5,1.9,0.8,3.1,0.8h0.4h6v2.4h-6.3c-1.2,0-2.4-0.2-3.5-0.6c-1.1-0.4-2.1-1-2.9-1.7c-0.8-0.8-1.5-1.8-2-3
		c-0.5-1.2-0.7-2.7-0.7-4.4c0-1.7,0.2-3.1,0.7-4.4c0.5-1.2,1.1-2.3,2-3c0.8-0.8,1.8-1.4,2.9-1.7c1.1-0.4,2.2-0.5,3.5-0.5h6.3v2.4H69
		c-1.3,0-2.2,0.1-2.9,0.3c-1.3,0.4-2.2,1.1-2.7,2.1c-0.6,1-0.8,2.1-0.8,3.2v0.3h11.9V37.1z"/>
	<path fill="#FFFFFF" d="M79.5,26.4v12.7c0,1.4,0.5,2.6,1.4,3.5c0.9,0.9,2.2,1.3,4,1.3c1.2,0,2.2-0.2,3-0.6c0.8-0.4,1.4-1,1.8-1.7
		c0.4-0.7,0.6-1.5,0.6-2.5V26.4h3.1V39c0,1.2-0.2,2.3-0.5,3.2c-0.4,0.9-0.9,1.6-1.6,2.2c-0.7,0.6-1.6,1-2.6,1.3
		c-1.1,0.3-2.3,0.4-3.7,0.4c-1.8,0-3.4-0.3-4.7-0.8c-1.3-0.5-2.2-1.3-2.8-2.4c-0.6-1.1-1-2.4-1-4V26.4H79.5z"/>
	<path fill="#FFFFFF" d="M98.9,35.2h6.7c1,0,1.9-0.2,2.6-0.7c0.7-0.4,1-1.3,1-2.5c0-1.3-0.3-2.1-1-2.6c-0.7-0.4-1.5-0.7-2.6-0.7
		h-6.7V35.2z M95.7,26.4h10.4c1.2,0,2.3,0.2,3.3,0.6c1,0.4,1.7,1,2.2,1.8c0.5,0.8,0.8,1.9,0.8,3.2c0,0.8-0.2,1.6-0.5,2.3
		c-0.3,0.7-0.8,1.2-1.4,1.7c-0.6,0.5-1.4,0.8-2.3,1l0.1,0.1c1.4,0.7,2.5,1.7,3,3.1c0.2,0.4,0.3,0.8,0.3,1.2c0.1,0.4,0.1,0.8,0.2,1.4
		c0.1,0.5,0.1,0.9,0.1,1.2c0,0.3,0.1,0.6,0.1,0.9c0.1,0.3,0.1,0.7,0.2,1.1h-3.3c-0.2-1-0.3-1.7-0.3-2c0-0.1,0-0.4-0.1-0.9
		c0-0.5-0.1-0.9-0.1-1.2c0-0.3-0.1-0.6-0.2-0.9c-0.3-1.1-0.9-1.9-1.6-2.4c-0.8-0.5-1.8-0.8-3.2-0.8h-4.7v8.2h-3.1V26.4z"/>
	<rect x="114.4" y="26.4" fill="#FFFFFF" width="3.1" height="19.4"/>
	<path fill="#FFFFFF" d="M136.1,28.7h-8.9c-0.7,0-1.3,0.1-1.8,0.3c-0.5,0.2-1,0.5-1.3,0.9c-0.3,0.4-0.5,1-0.5,1.7
		c0,0.7,0.2,1.3,0.5,1.7c0.3,0.4,0.8,0.7,1.3,0.9c0.5,0.2,1.1,0.3,1.8,0.3h3.2c2.2,0,3.9,0.5,5,1.4c1.1,0.9,1.7,2.3,1.7,4.2
		c0,1.9-0.6,3.3-1.7,4.2c-1.1,0.9-2.8,1.4-5,1.4h-9.3v-2.4h9.1c2.4,0,3.6-1,3.6-3.1c0-2.1-1.3-3.1-3.6-3.1h-3.9
		c-1.1,0-2.1-0.2-3-0.6c-0.9-0.4-1.6-1-2.2-1.7c-0.5-0.8-0.8-1.8-0.8-3c0-0.9,0.2-1.7,0.5-2.4c0.3-0.7,0.8-1.3,1.3-1.8
		c0.6-0.5,1.2-0.8,1.9-1c0.7-0.2,1.5-0.3,2.3-0.3h9.7V28.7z"/>
	<path fill="none" d="M0,0"/>
</g>
</svg>
